<svg width="97" height="100" viewBox="0 0 97 100" fill="none" xmlns="http://www.w3.org/2000/svg">
<path d="M0 0H96.242V100H0V0Z" fill="#F7DF1E"/>
<path d="M25.3058 83.5671L32.6709 78.9358C34.0918 81.5534 35.3843 83.7682 38.4847 83.7682C41.4566 83.7682 43.3303 82.5602 43.3303 77.8618V45.9095H52.3746V77.9947C52.3746 87.728 46.8836 92.1583 38.8724 92.1583C31.6373 92.1583 27.4375 88.2649 25.3057 83.5663" fill="black"/>
<path d="M57.2869 82.5603L64.6511 78.13C66.5896 81.4195 69.1092 83.8359 73.5666 83.8359C77.3141 83.8359 79.7038 81.889 79.7038 79.2039C79.7038 75.9819 77.249 74.8406 73.1142 72.9617L70.8538 71.9541C64.3284 69.0682 59.9998 65.4435 59.9998 57.7909C59.9998 50.7427 65.168 45.3724 73.2438 45.3724C78.9936 45.3724 83.1282 47.4535 86.0996 52.8908L79.0577 57.5894C77.5072 54.7032 75.828 53.5622 73.2439 53.5622C70.5951 53.5622 68.9153 55.3074 68.9153 57.5894C68.9153 60.4087 70.5951 61.5501 74.471 63.2955L76.7319 64.3024C84.4198 67.726 88.7484 71.2162 88.7484 79.0697C88.7484 87.5281 82.3527 92.1593 73.7606 92.1593C65.3622 92.1593 59.9354 87.9978 57.287 82.5603" fill="black"/>
</svg>
